<?xml version="1.0" encoding="UTF-8"?>
<svg id="Layer_1" xmlns="http://www.w3.org/2000/svg" xmlns:svg="http://www.w3.org/2000/svg" xmlns:sodipodi="http://sodipodi.sourceforge.net/DTD/sodipodi-0.dtd" xmlns:rdf="http://www.w3.org/1999/02/22-rdf-syntax-ns#" xmlns:inkscape="http://www.inkscape.org/namespaces/inkscape" xmlns:dc="http://purl.org/dc/elements/1.1/" xmlns:cc="http://creativecommons.org/ns#" version="1.1" viewBox="0 0 732.74 1336.21">
  <!-- Generator: Adobe Illustrator 30.3.0, SVG Export Plug-In . SVG Version: 2.1.3 Build 182)  -->
  <defs>
    <style>
      .st0 {
        stroke-width: .99px;
      }

      .st0, .st1 {
        fill: none;
        stroke: #000;
        stroke-linecap: round;
        stroke-linejoin: round;
      }

      .st1 {
        stroke-width: .87px;
      }

      .st2 {
        display: none;
      }
    </style>
  </defs>
  <g id="_x3C_defs">
    <inkscape:path-effect id="path-effect8081" copytype="single_stretched" effect="skeletal" fuse_tolerance="0" is_visible="true" normal_offset="0" pattern="M 0,0 0,10 10,5 z" prop_scale="0.09" prop_units="false" scale_y_rel="true" spacing="0" tang_offset="0" vertical_pattern="false"/>
    <inkscape:path-effect id="path-effect8085" copytype="single_stretched" effect="skeletal" fuse_tolerance="0" is_visible="true" normal_offset="0" pattern="m 630.8125,0 0,10 10,-5 z" prop_scale="0.09" prop_units="false" scale_y_rel="true" spacing="0" tang_offset="0" vertical_pattern="false"/>
    <inkscape:path-effect id="path-effect8089" copytype="single_stretched" effect="skeletal" fuse_tolerance="0" is_visible="true" normal_offset="0" pattern="m 585.20411,-289.01561 0,10 10,-5 z" prop_scale="0.09" prop_units="false" scale_y_rel="true" spacing="0" tang_offset="0" vertical_pattern="false"/>
    <inkscape:path-effect id="path-effect8093" copytype="single_stretched" effect="skeletal" fuse_tolerance="0" is_visible="true" normal_offset="0" pattern="m 44.938945,-288.92722 0,10 10,-5 z" prop_scale="0.09" prop_units="false" scale_y_rel="true" spacing="0" tang_offset="0" vertical_pattern="false"/>
  </g>
  <sodipodi:namedview id="base" bordercolor="#000000" borderopacity="1.0" fit-margin-bottom="0" fit-margin-left="0" fit-margin-right="0" fit-margin-top="0" inkscape:current-layer="layer1" inkscape:cx="361.42983" inkscape:cy="320.03634" inkscape:document-units="mm" inkscape:pageopacity="1.0" inkscape:pageshadow="0" inkscape:showpageshadow="false" inkscape:window-height="1018" inkscape:window-maximized="1" inkscape:window-width="1920" inkscape:window-x="-8" inkscape:window-y="-8" inkscape:zoom="1.36" pagecolor="#ffffff" showborder="false" showgrid="false" units="mm"/>
  <g id="g9860" class="st2">
    <g id="g9303">
      <path id="path4014-8" class="st1" d="M260.99,602.72l12.88,15c-6.34,5.4-6.92,11.72-3.92,17.77,2.8,4.73,9.39,6.18,14.58,3.37,14.9-8.6,2.97-29.27-8.32-35.84-12.47-7.67-23.48-2.97-32.07,2.28-32.57,21.1-31.3,53.05-36.53,111.78l-3.8,2.27,3.47,2.82c-1.81,50.36-7.2,108.86-47.31,118.93l-13.71-17.53c6.63-1.87,11.02-7.17,12.25-13.02,1.58-12.04-9.34-23.8-23.62-18.96-14.28,4.83-12.7,27.72-1.47,39.99s28.22,15.85,42.37,10.84c41.92-16.38,51.62-67.35,52.9-111.1l3.69-2.13-3.48-3.41c2.68-40.6-4.97-105.06,32.09-123.04h0v-.02h0Z" inkscape:connector-curvature="0" sodipodi:nodetypes="cccccccccccczzccccc"/>
      <path id="path9259" class="st1" d="M471.65,602.72l-12.88,15c6.34,5.4,6.92,11.72,3.92,17.77-2.8,4.73-9.39,6.18-14.58,3.37-14.9-8.6-2.97-29.27,8.32-35.84,12.47-7.67,23.48-2.97,32.07,2.28,32.57,21.1,31.3,53.05,36.53,111.78l3.8,2.27-3.47,2.82c1.81,50.36,7.2,108.86,47.31,118.93l13.71-17.53c-6.63-1.87-11.02-7.17-12.25-13.02-1.58-12.04,9.34-23.8,23.62-18.96,14.28,4.83,12.7,27.72,1.47,39.99-11.23,12.27-28.22,15.85-42.37,10.84-41.92-16.38-51.62-67.35-52.9-111.1l-3.69-2.13,3.48-3.41c-2.68-40.6,4.97-105.06-32.09-123.04h0v-.02h0Z" inkscape:connector-curvature="0" sodipodi:nodetypes="cccccccccccczzccccc"/>
    </g>
  </g>
  <path id="path10881" class="st0" d="M366.36,1295.92c9.09-.05,18.12-.19,27.1-.5,5.01-.11,9.9-.21,14.75-.33,17.17-.41,31.95-1.18,47.93-2.63,12.7-1.17,25.01-2.54,37.6-4.81,29.65-5.35,57.06-12.16,83.16-23.22,25.48-11.36,50.14-25.71,68.05-42.15,13.67-10.64,24.79-23.43,34.59-36.21,21.02-27.38,33.36-58,42.75-87.57,9.14-28.78,9.34-54.68,9.94-76.51-.5-21.75-2.39-42.47-7.47-62.45-5.89-30.57-18.37-58.66-30.26-88.79-6.73-16.09-13.22-31.43-12.93-50.5,1.61-18.89,5.57-27.58,13.01-35.54,1.85-1.88,2.72-4.58,1.42-7.33-3.37-6.14-5.26-11.77-9.79-18.54-.92-.61-2.07-.77-3.35.16-4.14,2.83-8.94,5.12-14.09,6.81-6.29,2.06-13.1,3.46-19.83,3.56-12.33.19-24.38-3.36-32.49-8.11-23.18-13.55-32.14-37.57-41.49-64.65-13.6-39.36-14.27-85.72-14.99-100.7.03-47.93,8.54-89.37,30.67-103.69,11.24-7.27,27.69-9.92,47.51,1.78.92.81,2.8.38,3.67-1.09,2.25-4.87,6.05-12.64,8.36-16.88.42-1.58.8-3.17-.59-5.07-12.98-8.47-18.9-26.36-17.27-44.94.66-4.89,1.4-9,3.17-15.99,7.89-31.07,29.36-91.57,25.86-137.1-.73-53.79-25.83-121.62-66.27-161.35-48.84-47.94-106.02-71.93-197.74-77.14-11.37-.36-21.55-.42-31.01-.24h-3.98c-9.46-.18-15.63-.12-27.01.24-91.72,5.22-148.89,29.2-197.74,77.14-40.44,39.72-65.54,107.56-66.27,161.35-3.5,45.53,17.97,106.03,25.86,137.1,1.77,6.99,2.52,11.1,3.17,15.99,1.63,18.58-4.29,36.47-17.27,44.94-1.38,1.9-1.01,3.49-.59,5.07,2.3,4.24,6.11,12.02,8.36,16.88.87,1.47,2.75,1.9,3.67,1.09,19.82-11.7,36.27-9.05,47.51-1.78,22.13,14.32,30.65,55.76,30.67,103.69-.72,14.98-1.39,61.34-14.99,100.7-9.36,27.08-18.32,51.1-41.49,64.65-7.85,4.59-19.38,8.17-31.28,8.16-12.61-.01-25.63-3.92-35.13-10.42-1.28-.94-2.43-.77-3.35-.16-4.54,6.77-6.42,12.4-9.79,18.54-1.3,2.75-.43,5.45,1.42,7.33,7.45,7.97,11.41,16.65,13.01,35.54.29,19.07-6.2,34.41-12.93,50.5-11.89,30.12-24.37,58.22-30.26,88.79-5.08,19.98-6.98,40.7-7.47,62.45.6,21.82.8,47.73,9.94,76.51,9.39,29.57,21.73,60.19,42.75,87.57,9.8,12.78,20.92,25.57,34.59,36.21,17.92,16.44,42.58,30.79,68.05,42.15,26.1,11.06,53.51,17.87,83.16,23.22,12.6,2.27,24.9,3.64,37.6,4.81,15.98,1.45,30.76,2.22,47.93,2.63,4.85.11,9.73.22,14.75.33,8.98.31,14.02.45,23.1.5h4.04Z" inkscape:connector-curvature="0" sodipodi:nodetypes="ccccscccsccccccccsssscccccccsccccccccscccccccsssccccccccscccsccccc"/>
  <g id="g10767">
    <path id="path8079" d="M52.03,776.13l.8-.5c-1.95-2.8-3.26-6.08-4.04-9.47.47,3.45,1.49,6.88,3.25,9.97h0Z" inkscape:connector-curvature="0" inkscape:original-d="m 52.487402,1576.1123 c -1.843089,-2.9369 -3.079601,-6.6349 -3.643652,-9.7197" inkscape:path-effect="#path-effect8081" sodipodi:nodetypes="cc"/>
    <path id="path8083" d="M679.57,775.75l.84.43c1.45-3.21,2.75-6.55,3.22-10.02-.78,3.41-2.35,6.56-4.06,9.59h0Z" inkscape:connector-curvature="0" inkscape:original-d="m 680.05411,1576.2007 c 1.57792,-3.1137 3.0796,-6.7233 3.64365,-9.8081" inkscape:path-effect="#path-effect8085" sodipodi:nodetypes="cc"/>
    <path id="path8087" d="M634.77,477.31l-.67.62c2.33,2.31,3.84,5.45,4.6,8.75-.46-3.35-1.69-6.69-3.93-9.36h0Z" inkscape:connector-curvature="0" inkscape:original-d="m 634.48988,1277.8557 c 2.28501,2.4949 3.69833,5.972 4.26243,9.0568" inkscape:path-effect="#path-effect8089" sodipodi:nodetypes="cc"/>
    <path id="path8091" d="M98.4,478.03l-.63-.64c-2.34,2.51-3.76,5.73-4.21,9.02.75-3.24,2.43-6.24,4.84-8.38h0Z" inkscape:connector-curvature="0" inkscape:original-d="m 98.150829,1277.9441 c -2.726952,2.6717 -3.963495,5.6184 -4.527595,8.7032" inkscape:path-effect="#path-effect8093" sodipodi:nodetypes="cc"/>
  </g>
  <path class="st1" d="M335.97,34.1c0-16.79,13.61-30.4,30.4-30.4s30.4,13.61,30.4,30.4"/>
</svg>