<?xml version="1.0" encoding="UTF-8"?>
<svg id="Layer_1" xmlns="http://www.w3.org/2000/svg" xmlns:xlink="http://www.w3.org/1999/xlink" version="1.1" viewBox="0 0 566.93 566.93">
  <!-- Generator: Adobe Illustrator 30.3.0, SVG Export Plug-In . SVG Version: 2.1.3 Build 182)  -->
  <defs>
    <style>
      .st0, .st1, .st2, .st3, .st4, .st5, .st6, .st7, .st8, .st9 {
        fill: none;
      }

      .st1 {
        stroke-dasharray: 13.82 3.45 1.73 3.45;
      }

      .st1, .st10, .st2, .st3, .st4, .st5, .st6, .st7, .st8, .st9 {
        stroke-width: .5px;
      }

      .st1, .st10, .st2, .st3, .st5, .st6, .st7, .st8, .st9 {
        stroke: #000;
      }

      .st1, .st7 {
        isolation: isolate;
        opacity: .5;
      }

      .st1, .st8 {
        stroke-miterlimit: 6.91;
      }

      .st10 {
        fill: #4e63ad;
      }

      .st10, .st4, .st6 {
        stroke-linejoin: round;
      }

      .st10, .st4, .st6, .st8, .st9 {
        stroke-linecap: round;
      }

      .st2, .st3, .st7, .st9 {
        stroke-miterlimit: 6.9;
      }

      .st2, .st7 {
        stroke-dasharray: 13.78 3.44 1.72 3.44;
      }

      .st3 {
        stroke-dasharray: 1.72 1.72;
      }

      .st4 {
        stroke: #010101;
      }

      .st11 {
        clip-path: url(#clippath-1);
      }

      .st12 {
        clip-path: url(#clippath-3);
      }

      .st13 {
        clip-path: url(#clippath-2);
      }

      .st5 {
        stroke-miterlimit: 10;
      }

      .st14 {
        clip-path: url(#clippath);
      }
    </style>
    <clipPath id="clippath">
      <rect class="st0" x="-10.76" y="72.58" width="219.69" height="299.34"/>
    </clipPath>
    <clipPath id="clippath-1">
      <rect class="st0" x="-10.76" y="72.58" width="219.69" height="299.34"/>
    </clipPath>
    <clipPath id="clippath-2">
      <rect class="st0" x="226.62" y="72.58" width="219.69" height="299.34"/>
    </clipPath>
    <clipPath id="clippath-3">
      <rect class="st0" x="226.62" y="72.58" width="219.69" height="299.34"/>
    </clipPath>
  </defs>
  <path class="st5" d="M28.34,72.58"/>
  <path class="st5" d="M28.34,72.58"/>
  <path class="st6" d="M119.41,72.58"/>
  <g>
    <g>
      <g id="g5877">
        <path id="path3910" class="st6" d="M234.98,207.79l6.87,120.18c.46,5.78-.14,10.17-.5,15.09l-25.3.03"/>
        <path id="path3912" class="st6" d="M241.28,354.25l-.02-11.29M190.44,343.32l.09,11.03"/>
        <path id="path3922" class="st6" d="M201.56,153.15l-9.01.02-1.46,1.41c-4.54,13.56-5.18,37.05-11.66,39.13-1.72-1.95-2.79-3.82-2.84-6.52"/>
        <path id="path3924" class="st6" d="M187.71,168.25h-11.64s-1.27,1.26-1.27,1.26c.05,4.9-.04,11.34.03,16.43l1.27,1.23,7.47.02"/>
        <path id="path3932" class="st6" d="M230.63,153l9.34-.03,1.34,1.34.26,1.01c3.23,12.91,5.36,33.99,11.16,38.4,1.78-.7,2.12-3.98,2.53-6.13"/>
        <path id="path3934" class="st6" d="M248.8,187.22h6.91s1.35-1.34,1.35-1.34v-16.42s-1.17-1.21-1.17-1.21l-11.57.02"/>
        <path id="path4063" class="st6" d="M186.97,195.4c.43,4.93.53,11.99,4.4,13.73l48.87.12c3.46-1.3,4.12-7.69,4.59-14.2"/>
        <path id="path4065" class="st6" d="M189.95,207.77c.56-.31,1.12-.88,1.33-1.07,5.17-4.63,9.24-39.48,11.07-57.65l1.35-18.34,1.15-1.19,22.37-.07,1.03,1.01,2.59,25.95c1.58,12.05,3.5,33.92,7.1,44.66.97,2.88,2.36,5.8,3.63,6.95"/>
        <path id="path4067" class="st6" d="M179.22,193.47l1.5,1.48h14.88"/>
        <path id="path4069" class="st6" d="M253.42,193.29l-1.48,1.54-15.27-.02"/>
        <path id="path8764" class="st6" d="M196.78,207.79l-6.87,120.18c-.46,5.78.14,10.17.5,15.09l25.3.03"/>
      </g>
      <g id="g9779">
        <path id="path9784" class="st6" d="M200.29,342.96c-.48-7.48-.59-7.13-.43-11.71l6.24-119.79,19.57-.04,6.39,119.85c.13,4.86-.14,7.93-.54,11.82l-31.23-.12Z"/>
      </g>
      <path id="path9788" class="st3" d="M205.58,335.32l4.36-123.86h11.69l4.99,123.88-21.04-.03Z"/>
      <path id="path9790" class="st3" d="M205.54,335.47l-5.28,7.36"/>
      <path id="path9792" class="st3" d="M226.65,335.58l4.71,7.33"/>
      <path id="path9798" class="st6" d="M191.37,209.13l48.87.12"/>
      <path id="path9806" class="st6" d="M205.06,129.58l21.73-.09"/>
      <path id="path9847" class="st6" d="M205.17,129.76l-.15,1.6-1.31,17.8s0,.03,0,.04c-.95,9.48-2.53,23.47-4.54,35.4-1.01,5.97-2.12,11.42-3.36,15.58-.62,2.08-1.26,3.85-1.97,5.23-.06.39-1.67,2.59-3.04,3.38M240.4,208.76c-2.15-2.26-3.6-6.66-4.28-8.97-1.12-3.83-2.06-8.62-2.87-13.75-1.63-10.26-2.76-21.88-3.75-29.48,0-.01-.01-.03-.02-.04l-2.53-25.39-.15-1.7"/>
      <path id="path9870" class="st6" d="M201.56,153.15l-9.01.02-1.46,1.41c-4.54,13.56-5.18,37.05-11.66,39.13-1.72-1.95-2.79-3.82-2.84-6.52"/>
      <path id="path9882" class="st6" d="M192.79,153.7l-.5,1.64c-4.46,13.31-5.15,36.21-11.32,38.99"/>
      <path id="path9884" class="st6" d="M239.61,153.45c.26.93.5,1.86.73,2.79,3.16,12.64,5.54,33.13,11.08,38.11"/>
      <path id="path9892" class="st9" d="M176.1,168.84v17.75"/>
      <path id="path9897" class="st9" d="M255.66,168.73v18.08"/>
      <path id="path10116" class="st6" d="M198.21,207.79l-6.87,120.18-.8,15.09"/>
      <path id="path10125" class="st6" d="M233.52,207.79l6.87,120.18.95,15.09"/>
      <path id="path4342" class="st7" d="M216.04,129.42v272.56"/>
      <line class="st5" x1="188.99" y1="401.98" x2="188.99" y2="401.98"/>
      <line class="st5" x1="188.99" y1="401.98" x2="242.97" y2="401.98"/>
      <line class="st6" x1="190.55" y1="354.32" x2="188.99" y2="401.98"/>
      <line class="st6" x1="241.24" y1="354.34" x2="242.97" y2="401.98"/>
    </g>
    <g>
      <path class="st6" d="M444.44,354.04"/>
      <line class="st6" x1="495.26" y1="354.07" x2="495.26" y2="354.07"/>
      <g id="g4265">
        <path id="path3898" class="st6" d="M445.11,334.7c.79,9.24,12.1,18.83,25.1,18.79,13.95-.28,20.76-8.6,23.6-14.7.86-2.02,1.09-4.14,1.18-5.82.59-11.23-1.14-39.39-1.95-55.32-1.13-22.23-1.85-44.61-3.03-66.86-1.42-26.77-2.46-52.76-7.55-80.21l-1.1-1.03-22.39.1-1.09,1.15c-4.81,25.71-6.95,51.57-8.53,80.04-1.17,21.11-1.27,42.62-2.44,64.35-1,18.61-2.41,54.01-1.81,59.52h0Z"/>
        <path id="path3900" class="st6" d="M486.21,153.06l7.67-.04,1.3,1.23c2.25,7.15,4.9,39.27.65,53.57l-1.59,1.67c-1.16-.38-3.37-1.09-4.37-1.31"/>
        <path id="path3902" class="st6" d="M497.91,168.34h11.83s1.3,1.3,1.3,1.3l-.04,16.47-1.28,1.19M511.01,180.27c-.22,2.77-2.67,13.02-5.81,14.76l-6.07.02"/>
        <path id="path3904" class="st6" d="M454.23,153.24l-7.88.04-1.42,1.23c-2.42,6.26-5.48,41.1-1.69,53.24l1.73,1.71c1.33-.59,3.08-1.09,4.51-1.39"/>
        <path id="path3906" class="st6" d="M441.68,168.4l-11.74-.06-1.43,1.43.06,16.4,1.28,1.07M428.55,179.31c-.02,5.79,3.59,13.7,6.72,15.83l6.05.03"/>
        <path id="path3908" class="st6" d="M493.37,339.89"/>
      </g>
      <path id="path4530" class="st10" d="M445.02,332.86"/>
      <path id="path45301" data-name="path4530" class="st10" d="M444.4,354.18"/>
      <path id="path4532" class="st10" d="M494.97,333.48"/>
      <path id="path45321" data-name="path4532" class="st10" d="M495.26,354.68"/>
      <path id="path4065-2" class="st6" d="M457.85,130.84l1.15-1.2,22.43-.07,1.03,1.01"/>
      <path id="path11144" class="st6" d="M459.53,129.79l-.3,1.62c-4.74,25.5-6.89,51.2-8.46,79.5-1.17,21.06-1.1,42.57-2.28,64.34-.5,9.3-1.14,22.78-1.58,34.64-.22,5.93-.39,11.44-.47,15.81s-.05,7.68.08,8.86c0,0,0,.01,0,.02.36,4.15,3.17,8.45,7.5,11.82,4.33,3.37,9.99,5.67,16.17,5.66,0,0,.01,0,.02,0,12.88-.27,19.03-7.61,21.89-13.3.88-1.9,1-2.69,1.38-4.78.1-1.44.18-3.28.21-5.43.06-4.31-.26-9.85-.42-15.81-.32-11.93-1.26-25.62-1.74-35.03-1.13-22.27-1.69-44.64-2.86-66.85-1.41-26.6-2.45-52.43-7.46-79.65l-.32-1.63"/>
      <path id="path11158" class="st8" d="M509.62,168.92c.1,8.01.52,18.97-3.66,25.46"/>
      <path id="path11160" class="st8" d="M429.92,168.89c.04,7.82-1.12,17.82,4.4,25.4"/>
      <path id="path11148" class="st6" d="M493.55,153.61c2.51,6.93,4.97,40.89.72,55.18"/>
      <path id="path11150" class="st6" d="M446.62,153.85c-3.72,10.06-5.21,45.85-1.67,55.09"/>
      <path id="path6661" class="st1" d="M469.88,129.8v272.06"/>
      <path class="st2" d="M496.99,401.86"/>
      <path class="st2" d="M442.87,401.86"/>
      <line class="st5" x1="442.89" y1="401.86" x2="498.38" y2="401.86"/>
      <line class="st5" x1="445.23" y1="335.67" x2="442.87" y2="401.86"/>
      <line class="st5" x1="495.12" y1="334.44" x2="498.38" y2="401.86"/>
    </g>
    <g>
      <g class="st14">
        <g id="g8496">
          <g id="g8500">
            <g id="g8504">
              <path id="path8506" class="st4" d="M85.91,191.46c-2.52-5.4-3.43-11.38-2.62-17.02,1.96-13.67,15.43-25.96,31.5-22.88,13.2,2.53,19.97,15.26,18.07,25.93-1.63,9.09-10.17,17-20.26,15.73-8.4-1.06-14.46-8.28-13.01-16.67,1.08-6.25,7.16-11.5,14.85-10.38,12.06,1.91,9.96,19.79-1.43,18.66-7.1-.71-8.56-7.57-6.07-11.56-3.65,1.03-7.58,11.41,2.44,15.31"/>
            </g>
          </g>
        </g>
      </g>
      <g class="st11">
        <g id="g8478">
          <path id="path7164" class="st4" d="M77.6,231.82c-3.63-.07-6.52-3.07-6.45-6.71s3.07-6.52,6.71-6.45,6.52,3.07,6.45,6.71c-.07,3.63-3.07,6.52-6.71,6.45h0Z"/>
          <path id="path7166" class="st4" d="M119.35,294.23c-3.63-.07-6.52-3.07-6.45-6.71.07-3.63,3.07-6.52,6.71-6.45,3.63.07,6.52,3.07,6.45,6.71-.07,3.63-3.07,6.52-6.71,6.45h0Z"/>
          <path id="path7168" class="st4" d="M127.31,322.81c-3.63-.07-6.52-3.07-6.45-6.71s3.07-6.52,6.71-6.45,6.52,3.07,6.45,6.71c-.07,3.63-3.07,6.52-6.71,6.45h0Z"/>
          <path id="path7170" class="st4" d="M94.27,256.47c-3.63-.07-6.52-3.07-6.45-6.71.07-3.63,3.07-6.52,6.71-6.45s6.52,3.07,6.45,6.71c-.07,3.63-3.07,6.52-6.71,6.45h0Z"/>
          <path id="path7174" class="st4" d="M88.41,351.38l-1.24-1.05c13.26-24.61,11.06-51.33-3.11-72.69-6.69-10.08-14.19-20.26-22.25-32.85-7.35-11.49-12.19-21.81-15.2-30.42-6.95-19.91-5.03-42.57,5.84-59.34,9.38-14.45,24.9-24.53,41.38-25.92,5.2-.44,10.1-.29,14.66.35,8.88,1.23,16.45,4.3,22.31,8.46,15.93,11.3,20.41,27.71,17.99,41.92-3.02,17.73-18.14,32.4-39.06,29.21-12.27-1.87-20.58-9.6-24.38-18.78"/>
          <path id="path7172" class="st4" d="M153.07,351.02l-.02,285.91"/>
          <path id="path7178" class="st4" d="M153.06,636.95l-86.79-7.07,5.06-61.42c28.11,1.54,40.59,4.98,42.57-29.35l1.18-161.54c.14-23.56-13.88-26.32-26.4-26.19"/>
          <path id="path7176" class="st4" d="M85.32,190.23c-.24-.62-1.95-2.43-2.79-1.48-1.04,1.16-2.61,3.96-1.71,8.04,1.14,5.13,11.18,13.95,17.23,19.95,8.41,8.34,16.88,17.03,24.56,26.29,12.78,15.41,20.03,30.81,24.43,48.7,3.79,15.39,5.5,31.96,5.95,48.57l.08,10.63"/>
        </g>
      </g>
    </g>
    <g>
      <path class="st6" d="M323.43,352.65"/>
      <g class="st13">
        <g id="g84961" data-name="g8496">
          <g id="g85001" data-name="g8500">
            <g id="g85041" data-name="g8504">
              <path id="path85061" data-name="path8506" class="st4" d="M349.63,191.46c2.52-5.4,3.43-11.38,2.62-17.02-1.96-13.67-15.43-25.96-31.5-22.88-13.2,2.53-19.97,15.26-18.07,25.93,1.63,9.09,10.17,17,20.26,15.73,8.4-1.06,14.46-8.28,13.01-16.67-1.08-6.25-7.16-11.5-14.85-10.38-12.06,1.91-9.96,19.79,1.43,18.66,7.1-.71,8.56-7.57,6.07-11.56,3.65,1.03,7.58,11.41-2.44,15.31"/>
            </g>
          </g>
        </g>
      </g>
      <g class="st12">
        <g id="g84781" data-name="g8478">
          <path id="path71641" data-name="path7164" class="st4" d="M357.95,231.82c3.63-.07,6.52-3.07,6.45-6.71-.07-3.63-3.07-6.52-6.71-6.45s-6.52,3.07-6.45,6.71c.07,3.63,3.07,6.52,6.71,6.45h0Z"/>
          <path id="path71661" data-name="path7166" class="st4" d="M316.2,294.23c3.63-.07,6.52-3.07,6.45-6.71-.07-3.63-3.07-6.52-6.71-6.45s-6.52,3.07-6.45,6.71c.07,3.63,3.07,6.52,6.71,6.45h0Z"/>
          <path id="path71681" data-name="path7168" class="st4" d="M308.23,322.81c3.63-.07,6.52-3.07,6.45-6.71s-3.07-6.52-6.71-6.45-6.52,3.07-6.45,6.71c.07,3.63,3.07,6.52,6.71,6.45h0Z"/>
          <path id="path71701" data-name="path7170" class="st4" d="M341.27,256.47c3.63-.07,6.52-3.07,6.45-6.71-.07-3.63-3.07-6.52-6.71-6.45s-6.52,3.07-6.45,6.71c.07,3.63,3.07,6.52,6.71,6.45h0Z"/>
          <path id="path71741" data-name="path7174" class="st4" d="M347.14,351.38l1.24-1.05c-13.26-24.61-11.06-51.33,3.11-72.69,6.69-10.08,14.19-20.26,22.25-32.85,7.35-11.49,12.19-21.81,15.2-30.42,6.95-19.91,5.03-42.57-5.84-59.34-9.38-14.45-24.9-24.53-41.38-25.92-5.2-.44-10.1-.29-14.66.35-8.88,1.23-16.45,4.3-22.31,8.46-15.93,11.3-20.41,27.71-17.99,41.92,3.02,17.73,18.14,32.4,39.06,29.21,12.27-1.87,20.58-9.6,24.38-18.78"/>
          <path id="path71721" data-name="path7172" class="st4" d="M282.47,351.02l.02,285.91"/>
          <path id="path71781" data-name="path7178" class="st4" d="M282.48,636.95l86.79-7.07-5.06-61.42c-28.11,1.54-40.59,4.98-42.57-29.35l-1.18-161.54c-.14-23.56,13.88-26.32,26.4-26.19"/>
          <path id="path71761" data-name="path7176" class="st4" d="M350.22,190.23c.24-.62,1.95-2.43,2.79-1.48,1.04,1.16,2.61,3.96,1.71,8.04-1.14,5.13-11.18,13.95-17.23,19.95-8.41,8.34-16.88,17.03-24.56,26.29-12.78,15.41-20.03,30.81-24.43,48.7-3.79,15.39-5.5,31.96-5.95,48.57l-.08,10.63"/>
        </g>
      </g>
    </g>
  </g>
</svg>