<?xml version="1.0" encoding="UTF-8"?>
<svg xmlns="http://www.w3.org/2000/svg" xmlns:svg="http://www.w3.org/2000/svg" xmlns:sodipodi="http://sodipodi.sourceforge.net/DTD/sodipodi-0.dtd" xmlns:rdf="http://www.w3.org/1999/02/22-rdf-syntax-ns#" xmlns:inkscape="http://www.inkscape.org/namespaces/inkscape" xmlns:dc="http://purl.org/dc/elements/1.1/" xmlns:cc="http://creativecommons.org/ns#" version="1.1" viewBox="0 0 732.74 1336.21">
  <!-- Generator: Adobe Illustrator 30.3.0, SVG Export Plug-In . SVG Version: 2.1.3 Build 182)  -->
  <defs>
    <style>
      .st0 {
        display: none;
      }

      .st0, .st1, .st2 {
        fill: none;
        stroke: #000;
        stroke-linecap: round;
        stroke-linejoin: round;
      }

      .st0, .st2 {
        stroke-width: .87px;
      }

      .st1 {
        stroke-width: .99px;
      }
    </style>
  </defs>
  <g id="svg4779" inkscape:version="0.48.4 r9939" sodipodi:docname="2.svg">
    <g id="_x3C_defs">
      <inkscape:path-effect id="path-effect8081" copytype="single_stretched" effect="skeletal" fuse_tolerance="0" is_visible="true" normal_offset="0" pattern="M 0,0 0,10 10,5 z" prop_scale="0.09" prop_units="false" scale_y_rel="true" spacing="0" tang_offset="0" vertical_pattern="false"/>
      <inkscape:path-effect id="path-effect8085" copytype="single_stretched" effect="skeletal" fuse_tolerance="0" is_visible="true" normal_offset="0" pattern="m 630.8125,0 0,10 10,-5 z" prop_scale="0.09" prop_units="false" scale_y_rel="true" spacing="0" tang_offset="0" vertical_pattern="false"/>
      <inkscape:path-effect id="path-effect8089" copytype="single_stretched" effect="skeletal" fuse_tolerance="0" is_visible="true" normal_offset="0" pattern="m 585.20411,-289.01561 0,10 10,-5 z" prop_scale="0.09" prop_units="false" scale_y_rel="true" spacing="0" tang_offset="0" vertical_pattern="false"/>
      <inkscape:path-effect id="path-effect8093" copytype="single_stretched" effect="skeletal" fuse_tolerance="0" is_visible="true" normal_offset="0" pattern="m 44.938945,-288.92722 0,10 10,-5 z" prop_scale="0.09" prop_units="false" scale_y_rel="true" spacing="0" tang_offset="0" vertical_pattern="false"/>
    </g>
    <sodipodi:namedview id="base" bordercolor="#000000" borderopacity="1.0" fit-margin-bottom="0" fit-margin-left="0" fit-margin-right="0" fit-margin-top="0" inkscape:current-layer="layer1" inkscape:cx="361.42983" inkscape:cy="320.03634" inkscape:document-units="mm" inkscape:pageopacity="1.0" inkscape:pageshadow="0" inkscape:showpageshadow="false" inkscape:window-height="1018" inkscape:window-maximized="1" inkscape:window-width="1920" inkscape:window-x="-8" inkscape:window-y="-8" inkscape:zoom="1.36" pagecolor="#ffffff" showborder="false" showgrid="false" units="mm"/>
    <g id="g9860">
      <g id="g9303">
        <path id="path4014-8" class="st2" d="M260.99,602.72l12.88,15c-6.34,5.4-6.92,11.72-3.92,17.77,2.8,4.73,9.39,6.18,14.58,3.37,14.9-8.6,2.97-29.27-8.32-35.84-12.47-7.67-23.48-2.97-32.07,2.28-32.57,21.1-31.3,53.05-36.53,111.78l-3.8,2.27,3.47,2.82c-1.81,50.36-7.2,108.86-47.31,118.93l-13.71-17.53c6.63-1.87,11.02-7.17,12.25-13.02,1.58-12.04-9.34-23.8-23.62-18.96-14.28,4.83-12.7,27.72-1.47,39.99,11.23,12.27,28.22,15.85,42.37,10.84,41.92-16.38,51.62-67.35,52.9-111.1l3.69-2.13-3.48-3.41c2.68-40.6-4.97-105.06,32.09-123.04h0Z" inkscape:connector-curvature="0" sodipodi:nodetypes="cccccccccccczzccccc"/>
        <path id="path9259" class="st2" d="M471.65,602.72l-12.88,15c6.34,5.4,6.92,11.72,3.92,17.77-2.8,4.73-9.39,6.18-14.58,3.37-14.9-8.6-2.97-29.27,8.32-35.84,12.47-7.67,23.48-2.97,32.07,2.28,32.57,21.1,31.3,53.05,36.53,111.78l3.8,2.27-3.47,2.82c1.81,50.36,7.2,108.86,47.31,118.93l13.71-17.53c-6.63-1.87-11.02-7.17-12.25-13.02-1.58-12.04,9.34-23.8,23.62-18.96,14.28,4.83,12.7,27.72,1.47,39.99-11.23,12.27-28.22,15.85-42.37,10.84-41.92-16.38-51.62-67.35-52.9-111.1l-3.69-2.13,3.48-3.41c-2.68-40.6,4.97-105.06-32.09-123.04h0Z" inkscape:connector-curvature="0" sodipodi:nodetypes="cccccccccccczzccccc"/>
      </g>
    </g>
    <path id="path10881" class="st1" d="M366.36,1295.92c9.09-.05,18.12-.19,27.1-.5,5.01-.11,9.9-.21,14.75-.33,17.17-.41,31.95-1.18,47.93-2.63,12.7-1.17,25.01-2.54,37.6-4.81,29.65-5.35,57.06-12.16,83.16-23.22,25.48-11.36,50.14-25.71,68.05-42.15,13.67-10.64,24.79-23.43,34.59-36.21,21.02-27.38,33.36-58,42.75-87.57,9.14-28.78,9.34-54.68,9.94-76.51-.5-21.75-2.39-42.47-7.47-62.45-5.89-30.57-18.37-58.66-30.26-88.79-6.73-16.09-13.22-31.43-12.93-50.5,1.61-18.89,5.57-27.58,13.01-35.54,1.85-1.88,2.72-4.58,1.42-7.33-3.37-6.14-5.26-11.77-9.79-18.54-.92-.61-2.07-.77-3.35.16-4.14,2.83-8.94,5.12-14.09,6.81-6.29,2.06-13.1,3.46-19.83,3.56-12.33.19-24.38-3.36-32.49-8.11-23.18-13.55-32.14-37.57-41.49-64.65-13.6-39.36-14.27-85.72-14.99-100.7.03-47.93,8.54-89.37,30.67-103.69,11.24-7.27,27.69-9.92,47.51,1.78.92.81,2.8.38,3.67-1.09,2.25-4.87,6.05-12.64,8.36-16.88.42-1.58.8-3.17-.59-5.07-12.98-8.47-18.9-26.36-17.27-44.94.66-4.89,1.4-9,3.17-15.99,7.89-31.07,29.36-91.57,25.86-137.1-.73-53.79-25.83-121.62-66.27-161.35-48.84-47.94-106.02-71.93-197.74-77.14-11.37-.36-21.55-.42-31.01-.24h-3.98c-9.46-.18-15.63-.12-27.01.24-91.72,5.22-148.89,29.2-197.74,77.14-40.44,39.72-65.54,107.56-66.27,161.35-3.5,45.53,17.97,106.03,25.86,137.1,1.77,6.99,2.52,11.1,3.17,15.99,1.63,18.58-4.29,36.47-17.27,44.94-1.38,1.9-1.01,3.49-.59,5.07,2.3,4.24,6.11,12.02,8.36,16.88.87,1.47,2.75,1.9,3.67,1.09,19.82-11.7,36.27-9.05,47.51-1.78,22.13,14.32,30.65,55.76,30.67,103.69-.72,14.98-1.39,61.34-14.99,100.7-9.36,27.08-18.32,51.1-41.49,64.65-7.85,4.59-19.38,8.17-31.28,8.16-12.61-.01-25.63-3.92-35.13-10.42-1.28-.94-2.43-.77-3.35-.16-4.54,6.77-6.42,12.4-9.79,18.54-1.3,2.75-.43,5.45,1.42,7.33,7.45,7.97,11.41,16.65,13.01,35.54.29,19.07-6.2,34.41-12.93,50.5-11.89,30.12-24.37,58.22-30.26,88.79-5.08,19.98-6.98,40.7-7.47,62.45.6,21.82.8,47.73,9.94,76.51,9.39,29.57,21.73,60.19,42.75,87.57,9.8,12.78,20.92,25.57,34.59,36.21,17.92,16.44,42.58,30.79,68.05,42.15,26.1,11.06,53.51,17.87,83.16,23.22,12.6,2.27,24.9,3.64,37.6,4.81,15.98,1.45,30.76,2.22,47.93,2.63,4.85.11,9.73.22,14.75.33,8.98.31,14.02.45,23.1.5h3.98Z" inkscape:connector-curvature="0" sodipodi:nodetypes="ccccscccsccccccccsssscccccccsccccccccscccccccsssccccccccscccsccccc"/>
    <g id="flowRoot5621-1">
      <path id="path5288-5" d="M614.75,1257.62l-.03-.33c.6-.02,1.14-.05,1.61-.09s.96-.09,1.43-.16l.03.33c-.48.07-.77.13-.86.2-.09.06-.13.17-.12.31,0,.06.06.34.17.86.27,1.36.68,3.2,1.21,5.51,1.5-2.98,2.49-5.05,2.97-6.2.12-.29.17-.49.16-.62,0-.09-.07-.17-.18-.21-.11-.05-.38-.06-.81-.05l-.03-.33c.66-.03,1.09-.05,1.29-.06.27-.02.62-.06,1.06-.13l.03.33c-.14.04-.25.08-.33.13-.07.05-.15.14-.21.26l-.78,1.64-1.21,2.43c-.44.88-1.11,2.26-2.01,4.14l-.59.05c-.25-1.21-.82-3.7-1.71-7.47-.06-.26-.13-.41-.2-.45-.07-.04-.36-.07-.87-.08Z" inkscape:connector-curvature="0"/>
      <path id="path5290-2" d="M623.25,1265.05l.02-.32c.31-.12.49-.21.54-.27.05-.06.09-.17.1-.33.09-.71.21-1.98.35-3.82s.2-2.86.18-3.07c-.01-.17-.08-.27-.2-.3-.08-.02-.37-.03-.88-.03l.02-.33c.56-.01.96-.03,1.2-.05.18-.01.59-.06,1.24-.14l.72-.07c.82-.07,1.41.02,1.78.27.37.25.58.63.62,1.14s-.1.95-.41,1.39c-.31.44-.84.83-1.57,1.16.73.04,1.23.15,1.52.33.38.23.59.63.63,1.21.06.69-.2,1.32-.76,1.9-.66.68-1.4,1.06-2.23,1.12-.14.01-.4.02-.79.04-.37.01-.68.03-.91.05-.27.02-.66.06-1.17.12h0ZM625.18,1260.27c.26,0,.46-.01.58-.02.73-.06,1.29-.3,1.67-.73.38-.43.55-.95.5-1.59-.03-.4-.19-.7-.46-.9-.28-.2-.68-.28-1.21-.23-.2.02-.45.05-.75.1-.13.72-.24,1.84-.33,3.37ZM624.89,1264.34c.5.05.9.07,1.2.04.77-.06,1.31-.31,1.61-.75s.44-.97.38-1.61c-.04-.5-.23-.87-.55-1.11s-.83-.32-1.52-.27c-.24.02-.53.06-.87.11-.09,1.02-.18,2.22-.25,3.57h0Z" inkscape:connector-curvature="0"/>
    </g>
    <g id="g3080">
      <g id="flowRoot5621-1-7">
        <path id="path5288-5-4" d="M614.69,1257.67l-.03-.33c.6-.02,1.14-.05,1.61-.09s.96-.09,1.43-.16l.03.33c-.48.07-.77.13-.86.2-.09.06-.13.17-.12.31,0,.06.06.34.17.86.27,1.36.68,3.2,1.21,5.51,1.5-2.98,2.49-5.05,2.97-6.2.12-.29.17-.49.16-.62,0-.09-.07-.17-.18-.21-.11-.05-.38-.06-.81-.05l-.03-.33c.66-.03,1.09-.05,1.29-.06.27-.02.62-.06,1.06-.13l.03.33c-.14.04-.25.08-.33.13-.07.05-.15.14-.21.26l-.78,1.64-1.21,2.43c-.44.88-1.11,2.26-2.01,4.14l-.59.05c-.25-1.21-.82-3.7-1.71-7.47-.06-.26-.13-.41-.2-.45-.07-.04-.36-.07-.87-.08Z" inkscape:connector-curvature="0"/>
        <path id="path5290-2-0" d="M623.19,1265.1l.02-.32c.31-.12.49-.21.54-.27.05-.06.09-.17.1-.33.09-.71.21-1.98.35-3.82s.2-2.86.18-3.07c-.01-.17-.08-.27-.2-.3-.08-.02-.37-.03-.88-.03l.02-.33c.56-.01.96-.03,1.2-.05.18-.01.59-.06,1.24-.14l.72-.07c.82-.07,1.41.02,1.78.27.37.25.58.63.62,1.14s-.1.95-.41,1.39c-.31.44-.84.83-1.57,1.16.73.04,1.23.15,1.52.33.38.23.59.63.63,1.21.06.69-.2,1.32-.76,1.9-.66.68-1.4,1.06-2.23,1.12-.14.01-.4.02-.79.04-.37.01-.68.03-.91.05-.27.02-.66.06-1.17.12h0ZM625.12,1260.33c.26,0,.46-.01.58-.02.73-.06,1.29-.3,1.67-.73.38-.43.55-.95.5-1.59-.03-.4-.19-.7-.46-.9-.28-.2-.68-.28-1.21-.23-.2.02-.45.05-.75.1-.13.72-.24,1.84-.33,3.37ZM624.83,1264.4c.5.05.9.07,1.2.04.77-.06,1.31-.31,1.61-.75s.44-.97.38-1.61c-.04-.5-.23-.87-.55-1.11s-.83-.32-1.52-.27c-.24.02-.53.06-.87.11-.09,1.02-.18,2.22-.25,3.57h0Z" inkscape:connector-curvature="0"/>
      </g>
      <path id="path6800" class="st1" d="M366.28,51.33h-3.97c-.1,0-.21,0-.31,0h0c-9.24-.17-14.92-.13-26.06.22h-.09c-88.86,5.12-140.27,27.1-186.31,72.28-36.02,35.39-60.49,100.69-61.16,149.38,0,.37-.03.73-.06,1.09-3,39.07,16.97,98.5,25.38,131.59,1.88,7.42,2.84,12.56,3.56,17.91.04.26.07.52.09.78,1.43,16.36-1.67,36.06-9.31,46.03,15.25-4.86,31.84-.02,43.28,7.38,16.53,10.69,25.33,28.75,30.81,49.09,5.49,20.34,7.61,43.94,7.62,68.91,0,.27-.01.54-.03.81-.66,13.79-.98,62.33-15.88,105.44-9.44,27.31-19.89,56.8-49,73.81-17.45,11.94-49.41,15.72-63.99,8.27,4.88,11.41,6.96,19.19,7.24,34.55.03.39.06.79.06,1.19.35,22.91-7.41,41.02-14.09,57-.05.12-.08.23-.12.34-12.01,30.41-23.89,57.47-29.28,85.44-.06.34-.14.67-.22,1-4.61,18.12-6.44,37.36-6.94,58.22.6,21.96.92,45.5,9.12,71.34,9.11,28.7,20.78,57.27,40.03,82.34,9.36,12.2,19.55,23.8,31.53,33.12.37.29.72.59,1.06.91,15.75,14.46,38.96,28.17,63.19,39,.03.01.06.02.09.03.06.03.12.07.19.09,24.38,10.3,50.39,16.82,79.25,22.03,11.85,2.14,23.61,3.44,36.09,4.59h.03c15.56,1.41,29.89,2.16,46.78,2.56,4.87.12,9.75.24,14.72.34.07,0,.15,0,.22,0,8.91.3,13.63.45,22.5.5h3.95" inkscape:connector-curvature="0" sodipodi:nodetypes="cccccccccsccccsccscccccccccsccccccscccccccc"/>
      <path id="path6792" class="st1" d="M366.28,47.52h-3.97c-.08,0-.17,0-.25,0h0c-9.31-.17-15.09-.13-26.34.22-89.51,5.14-142.21,27.57-188.87,73.38-37.01,36.36-61.6,102.24-62.28,152.06,0,.27-.01.54-.03.81-3.11,40.51,17.17,100.2,25.47,132.84,7.02,25.06,5.01,54.38-11.94,70.85,22.66-10.93,53.23-4.53,69.62,23.42,4.66,7.96,8.1,17.14,10.76,26.98,5.35,19.85,7.49,43.16,7.5,67.91,0,.21,0,.42,0,.62-.67,14.05-1.08,62.11-15.69,104.38-9.42,27.26-19.56,55.54-47.34,71.78-27.66,15.49-58.9,12.67-70.59,2.94,18.57,31.18,14.57,64.58-1.81,99.97-.03.09-.06.17-.09.25-11.99,30.35-24,57.64-29.5,86.19-.04.26-.1.52-.16.78-4.71,18.54-6.57,38.12-7.06,59.19.6,21.92.9,45.99,9.31,72.47,9.17,28.89,20.98,57.91,40.62,83.5h.03c9.46,12.33,19.86,24.19,32.22,33.81.28.23.55.47.81.72,16.22,14.89,39.75,28.74,64.25,39.69,24.83,10.52,51.22,17.15,80.34,22.41,12.02,2.17,23.91,3.5,36.44,4.66h.03c15.65,1.42,30.08,2.16,47.03,2.56,4.86.11,9.74.24,14.72.34.05,0,.1,0,.16,0,8.93.3,13.73.45,22.66.5h3.91" inkscape:connector-curvature="0" sodipodi:nodetypes="cccccccccccsccscccccccscccccccccccccc"/>
      <path id="path6794" class="st1" d="M366.28,47.52h3.97c.08,0,.17,0,.25,0h0c9.31-.17,15.09-.13,26.34.22,89.51,5.14,142.21,27.57,188.88,73.38,37.01,36.36,61.6,102.24,62.28,152.06,0,.27.01.54.03.81,3.11,40.51-17.17,100.2-25.47,132.84-7.02,25.06-5.01,54.38,11.94,70.85-22.66-10.93-53.23-4.53-69.62,23.42-4.66,7.96-8.1,17.14-10.76,26.98-5.35,19.85-7.49,43.16-7.5,67.91,0,.21,0,.42,0,.62.67,14.05,1.08,62.11,15.69,104.38,9.42,27.26,19.56,55.54,47.34,71.78,27.66,15.49,58.9,12.67,70.59,2.94-18.57,31.18-14.57,64.58,1.81,99.97.03.09.06.17.09.25,11.99,30.35,24,57.64,29.5,86.19.04.26.1.52.16.78,4.71,18.54,6.57,38.12,7.06,59.19-.6,21.92-.9,45.99-9.31,72.47-9.17,28.89-20.98,57.91-40.62,83.5h-.03c-9.46,12.33-19.86,24.19-32.22,33.81-.28.23-.55.47-.81.72-16.22,14.89-39.75,28.74-64.25,39.69-24.83,10.52-51.22,17.15-80.34,22.41-12.02,2.17-23.91,3.5-36.44,4.66h-.03c-15.65,1.42-30.08,2.16-47.03,2.56-4.86.11-9.74.24-14.72.34-.05,0-.1,0-.16,0-8.93.3-13.73.45-22.66.5h-3.91" inkscape:connector-curvature="0" sodipodi:nodetypes="cccccccccccsccscccccccscccccccccccccc"/>
      <g id="g10767">
        <path id="path8079" d="M52.03,776.13l.8-.5c-1.95-2.8-3.26-6.08-4.04-9.47.47,3.45,1.49,6.88,3.25,9.97Z" inkscape:connector-curvature="0" inkscape:original-d="m 52.487402,1576.1123 c -1.843089,-2.9369 -3.079601,-6.6349 -3.643652,-9.7197" inkscape:path-effect="#path-effect8081" sodipodi:nodetypes="cc"/>
        <path id="path8083" d="M679.57,775.75l.84.43c1.45-3.21,2.75-6.55,3.22-10.02-.78,3.41-2.35,6.56-4.06,9.59h0Z" inkscape:connector-curvature="0" inkscape:original-d="m 680.05411,1576.2007 c 1.57792,-3.1137 3.0796,-6.7233 3.64365,-9.8081" inkscape:path-effect="#path-effect8085" sodipodi:nodetypes="cc"/>
        <path id="path8087" d="M634.77,477.31l-.67.62c2.33,2.31,3.84,5.45,4.6,8.75-.46-3.35-1.69-6.69-3.93-9.36Z" inkscape:connector-curvature="0" inkscape:original-d="m 634.48988,1277.8557 c 2.28501,2.4949 3.69833,5.972 4.26243,9.0568" inkscape:path-effect="#path-effect8089" sodipodi:nodetypes="cc"/>
        <path id="path8091" d="M98.4,478.03l-.63-.64c-2.34,2.51-3.76,5.73-4.21,9.02.75-3.24,2.43-6.24,4.84-8.38h0Z" inkscape:connector-curvature="0" inkscape:original-d="m 98.150829,1277.9441 c -2.726952,2.6717 -3.963495,5.6184 -4.527595,8.7032" inkscape:path-effect="#path-effect8093" sodipodi:nodetypes="cc"/>
      </g>
      <path id="path6804" class="st1" d="M366.28,51.33h3.97c.1,0,.21,0,.31,0h0c9.24-.17,14.92-.13,26.06.22h.09c88.86,5.12,140.27,27.1,186.31,72.28,36.02,35.39,60.49,100.69,61.16,149.38,0,.37.03.73.06,1.09,3,39.07-16.97,98.5-25.38,131.59-1.88,7.42-2.84,12.56-3.56,17.91-.04.26-.07.52-.09.78-1.43,16.36,1.67,36.06,9.31,46.03-15.25-4.86-31.84-.02-43.28,7.38-16.53,10.69-25.33,28.75-30.81,49.09-5.49,20.34-7.61,43.94-7.62,68.91,0,.27.01.54.03.81.66,13.79.98,62.33,15.88,105.44,9.44,27.31,19.89,56.8,49,73.81,17.45,11.94,49.41,15.72,63.99,8.27-4.88,11.41-6.96,19.19-7.24,34.55-.03.39-.06.79-.06,1.19-.35,22.91,7.41,41.02,14.09,57,.05.12.08.23.12.34,12.01,30.41,23.89,57.47,29.28,85.44.06.34.14.67.22,1,4.61,18.12,6.44,37.36,6.94,58.22-.6,21.96-.92,45.5-9.12,71.34-9.11,28.7-20.78,57.27-40.03,82.34-9.36,12.2-19.55,23.8-31.53,33.12-.37.29-.72.59-1.06.91-15.75,14.46-38.96,28.17-63.19,39-.03.01-.06.02-.09.03-.06.03-.12.07-.19.09-24.38,10.3-50.39,16.82-79.25,22.03-11.85,2.14-23.61,3.44-36.09,4.59h-.03c-15.56,1.41-29.89,2.16-46.78,2.56-4.87.12-9.75.24-14.72.34-.07,0-.15,0-.22,0-8.91.3-13.63.45-22.5.5h-3.95" inkscape:connector-curvature="0" sodipodi:nodetypes="cccccccccsccccsccscccccccccsccccccscccccccc"/>
    </g>
    <path class="st0" d="M335.97,34.1c0-16.79,13.61-30.4,30.4-30.4s30.4,13.61,30.4,30.4"/>
  </g>
</svg>